<svg id="katman_1" data-name="katman 1" fill="#35be3b"  xmlns="http://www.w3.org/2000/svg" viewBox="0 0 150.37 255.93"><g id="U0oF4U.tif"><path d="M50.12,127.94c1.21,1,2,1.62,2.72,2.33q46.08,46,92.12,92.13c5.52,5.51,7.24,12.23,3.17,17.72a70.27,70.27,0,0,1-13.66,13.63c-4.63,3.55-10.91,2.49-15.5-1.23-.84-.68-1.64-1.41-2.41-2.17L5.38,139.17C-.31,133.48-1.56,127,2,120.91a20.25,20.25,0,0,1,3.31-4Q61,61.08,116.81,5.32c7.12-7.12,15.1-7.09,22.26.08,2.76,2.77,5.62,5.47,8.12,8.46A13.7,13.7,0,0,1,147,31.31c-.8.95-1.69,1.84-2.57,2.72l-91.59,91.6C52.11,126.33,51.31,126.92,50.12,127.94Z"/></g></svg>