<svg width="11" height="7" viewBox="0 0 11 7" fill="none" xmlns="http://www.w3.org/2000/svg">
<path d="M5.53953 5.60079C5.6895 5.4423 5.80228 5.31979 5.91879 5.20108C7.31437 3.77987 8.71015 2.35845 10.1061 0.936823C10.2654 0.774538 10.4414 0.694974 10.6639 0.771381C10.74 0.797129 10.8087 0.841475 10.8641 0.900543C10.9195 0.959612 10.9598 1.0316 10.9816 1.11023C11.0033 1.18885 11.0059 1.27171 10.9889 1.35156C10.972 1.43141 10.9362 1.50582 10.8845 1.56828C10.8486 1.61249 10.8064 1.65164 10.7668 1.69458L5.98758 6.55682C5.67772 6.87255 5.42984 6.87255 5.1268 6.56251C3.51887 4.9266 1.91073 3.2907 0.302388 1.65479C0.143743 1.49314 0.0613222 1.3157 0.135067 1.08648C0.160046 1.00924 0.203111 0.939363 0.260538 0.882888C0.317966 0.826413 0.388028 0.78504 0.464668 0.762346C0.541308 0.739651 0.622219 0.736319 0.700407 0.752636C0.778594 0.768953 0.851705 0.804429 0.913419 0.855996C0.957418 0.892621 0.99584 0.93556 1.03736 0.975973C2.49987 2.46369 3.96176 3.951 5.42302 5.43787C5.46561 5.48929 5.50455 5.54373 5.53953 5.60079Z" fill="#E7F0E8"/>
</svg>
