<svg width="11" height="7" viewBox="0 0 11 7" fill="none" xmlns="http://www.w3.org/2000/svg">
<path d="M5.56826 1.34867C5.41829 1.50717 5.3055 1.62967 5.189 1.74839C3.79342 3.16959 2.39763 4.59101 1.00164 6.01264C0.842377 6.17492 0.66638 6.25449 0.443905 6.17808C0.367822 6.15233 0.299086 6.10799 0.243708 6.04892C0.18833 5.98985 0.147996 5.91786 0.12623 5.83924C0.104464 5.76061 0.10193 5.67776 0.11885 5.59791C0.135769 5.51806 0.171628 5.44365 0.22329 5.38118C0.259233 5.33698 0.301373 5.29783 0.341034 5.25489L5.12021 0.39264C5.43007 0.0769102 5.67795 0.0769104 5.98098 0.386958C7.58892 2.02286 9.19706 3.65877 10.8054 5.29467C10.964 5.45632 11.0465 5.63376 10.9727 5.86298C10.9477 5.94022 10.9047 6.0101 10.8472 6.06657C10.7898 6.12305 10.7198 6.16442 10.6431 6.18712C10.5665 6.20981 10.4856 6.21314 10.4074 6.19683C10.3292 6.18051 10.2561 6.14503 10.1944 6.09347C10.1504 6.05684 10.1119 6.0139 10.0704 5.97349C8.60792 4.48577 7.14603 2.99847 5.68476 1.51159C5.64217 1.46018 5.60324 1.40573 5.56826 1.34867Z" fill="#E7F0E8"/>
</svg>
