<svg width="23" height="22" viewBox="0 0 23 22" fill="none" xmlns="http://www.w3.org/2000/svg">
<path d="M16.9386 15.3798C17.0044 15.4236 17.0673 15.4718 17.1267 15.524C18.695 17.0893 20.2632 18.6558 21.8315 20.2234C22.1365 20.5276 22.2833 20.8713 22.1154 21.2924C21.8851 21.8708 21.0667 21.9956 20.5894 21.5236C19.8984 20.8388 19.2127 20.1478 18.5244 19.4604C17.6401 18.5761 16.7561 17.6911 15.8723 16.8056C15.8163 16.7433 15.7647 16.6772 15.7176 16.6078C13.1191 18.5928 10.2727 19.2081 7.16167 18.2904C5.07829 17.675 3.42125 16.4162 2.21694 14.6062C0.960796 12.7356 0.439691 10.467 0.75362 8.23579C1.06755 6.00454 2.1944 3.96782 3.91792 2.51646C7.28298 -0.350168 12.2251 -0.42401 15.7325 2.45932C19.2136 5.32067 20.4443 11.039 16.9386 15.3798ZM9.87533 2.14285C8.41825 2.13889 6.99266 2.56676 5.77858 3.37245C4.56451 4.17813 3.61639 5.3255 3.05395 6.66966C2.49151 8.01382 2.33998 9.4945 2.61848 10.9247C2.89699 12.355 3.59304 13.6706 4.61875 14.7055C5.64446 15.7404 6.95383 16.4482 8.38151 16.7394C9.80919 17.0307 11.2912 16.8924 12.6403 16.342C13.9894 15.7916 15.1452 14.8537 15.9617 13.6469C16.7782 12.44 17.2188 11.0183 17.2278 9.56127C17.2357 8.59042 17.0514 7.6276 16.6855 6.7283C16.3196 5.829 15.7794 5.011 15.0959 4.32142C14.4125 3.63185 13.5993 3.08434 12.7033 2.71043C11.8073 2.33653 10.8462 2.14363 9.87533 2.14285Z" fill="#16251E"/>
<path d="M10.7509 10.4113V10.7111C10.7456 11.3616 10.7597 12.013 10.7298 12.6626C10.7155 12.8881 10.6136 13.0991 10.4459 13.2505C10.2782 13.4019 10.058 13.4818 9.83224 13.4731C9.60245 13.4699 9.38305 13.3768 9.22104 13.2138C9.05904 13.0508 8.9673 12.8309 8.96548 12.6011C8.95142 11.9576 8.96021 11.3141 8.95845 10.6671V10.4034H7.95456C7.58184 10.4034 7.20912 10.4034 6.83551 10.4034C6.29841 10.4034 5.89843 10.0193 5.89667 9.51292C5.89492 9.00658 6.29137 8.62507 6.82848 8.61715C7.44998 8.60748 8.07148 8.61715 8.69297 8.61715H8.95669C8.95669 8.43255 8.95669 8.26553 8.95669 8.10114C8.95669 7.53766 8.95142 6.97418 8.96373 6.41158C8.96913 6.22388 9.03516 6.04297 9.15195 5.89592C9.26873 5.74887 9.42999 5.64358 9.61159 5.59581C9.9852 5.49736 10.4028 5.63186 10.5847 5.96766C10.6848 6.16822 10.7383 6.38878 10.7412 6.61289C10.7605 7.26955 10.7482 7.93148 10.7482 8.61715H10.9952C11.6167 8.61715 12.2382 8.61715 12.8597 8.61715C13.2509 8.61715 13.5568 8.78769 13.7203 9.15075C13.7954 9.30302 13.823 9.47432 13.7997 9.64248C13.7763 9.81063 13.7031 9.96792 13.5894 10.094C13.503 10.1988 13.3935 10.2821 13.2695 10.3375C13.1455 10.3928 13.0104 10.4187 12.8747 10.4131C12.2532 10.4131 11.6317 10.4131 11.0102 10.4131L10.7509 10.4113Z" fill="#16251E"/>
</svg>
